<?xml version="1.0" encoding="iso-8859-1"?>
<!-- Generator: Adobe Illustrator 21.0.0, SVG Export Plug-In . SVG Version: 6.00 Build 0)  -->
<svg xmlns="http://www.w3.org/2000/svg" xmlns:xlink="http://www.w3.org/1999/xlink" version="1.1" id="Capa_1" x="0px" y="0px" viewBox="0 0 512 512" style="enable-background:new 0 0 512 512;" xml:space="preserve" width="512" height="512">
<g>
	<rect x="151" y="376" width="210" height="61"/>
	<path d="M76,60c-8.291,0-15,6.709-15,15v422c0,8.291,6.709,15,15,15h360c8.291,0,15-6.709,15-15V75c0-8.291-6.709-15-15-15h-90v15   c0,24.814-20.186,45-45,45h-90c-24.814,0-45-20.186-45-45V60H76z M136,166c8.284,0,15,6.714,15,15c0,8.284-6.716,15-15,15   s-15-6.716-15-15C121,172.714,127.716,166,136,166z M136,226c8.284,0,15,6.714,15,15c0,8.284-6.716,15-15,15s-15-6.716-15-15   C121,232.714,127.716,226,136,226z M136,286c8.284,0,15,6.714,15,15c0,8.284-6.716,15-15,15s-15-6.716-15-15   C121,292.714,127.716,286,136,286z M196,166h180c8.291,0,15,6.709,15,15s-6.709,15-15,15H196c-8.291,0-15-6.709-15-15   S187.709,166,196,166z M196,226h180c8.291,0,15,6.709,15,15s-6.709,15-15,15H196c-8.291,0-15-6.709-15-15S187.709,226,196,226z    M196,286h180c8.291,0,15,6.709,15,15s-6.709,15-15,15H196c-8.291,0-15-6.709-15-15S187.709,286,196,286z M376,346   c8.291,0,15,6.709,15,15v91c0,8.291-6.709,15-15,15H136c-8.291,0-15-6.709-15-15v-91c0-8.291,6.709-15,15-15H376z"/>
	<path d="M301,90c8.284,0,15-6.716,15-15V45c0-8.286-6.716-15-15-15h-15c0-16.569-13.431-30-30-30s-30,13.431-30,30h-15   c-8.284,0-15,6.714-15,15v30c0,8.284,6.716,15,15,15H301z"/>
</g>















</svg>
