<svg height="464pt" viewBox="-8 0 464 464" width="464pt" xmlns="http://www.w3.org/2000/svg"><path d="m352 448h-67.816406l-25.597656-64h-69.171876l-25.597656 64h-67.816406c-4.417969 0-8 3.582031-8 8s3.582031 8 8 8h256c4.417969 0 8-3.582031 8-8s-3.582031-8-8-8zm0 0"/><path d="m0 344c0 13.253906 10.746094 24 24 24h400c13.253906 0 24-10.746094 24-24v-8h-448zm0 0"/><path d="m200 176v-111.59375c-59.613281 4.238281-105.378906 54.558594-103.96875 114.304688 1.414062 59.746093 49.511719 107.84375 109.257812 109.257812 59.746094 1.410156 110.066407-44.355469 114.304688-103.96875h-111.59375c-4.417969 0-8-3.582031-8-8zm0 0"/><path d="m424 0h-400c-13.253906 0-24 10.746094-24 24v296h448v-296c0-13.253906-10.746094-24-24-24zm-216 304c-70.691406 0-128-57.308594-128-128s57.308594-128 128-128c4.417969 0 8 3.582031 8 8v112h112c4.417969 0 8 3.582031 8 8-.082031 70.65625-57.34375 127.917969-128 128zm152-152h-120c-4.417969 0-8-3.582031-8-8v-120c0-4.417969 3.582031-8 8-8 70.65625.082031 127.917969 57.34375 128 128 0 4.417969-3.582031 8-8 8zm0 0"/><path d="m248 32.28125v103.71875h103.71875c-4.050781-55.519531-48.199219-99.667969-103.71875-103.71875zm0 0"/></svg>