<?xml version="1.0" encoding="utf-8"?>
<!-- Generator: Adobe Illustrator 24.0.2, SVG Export Plug-In . SVG Version: 6.00 Build 0)  -->
<svg version="1.1" id="Layer_1" xmlns="http://www.w3.org/2000/svg" xmlns:xlink="http://www.w3.org/1999/xlink" x="0px" y="0px"
	 viewBox="0 0 20 20" style="enable-background:new 0 0 20 20;" xml:space="preserve">
<style type="text/css">
	.st0{fill:#FFFFFF;}
</style>
<g>
	<path class="st0" d="M17.9,13.7c-0.1-0.1-0.2-0.2-0.3-0.2c-1.6-0.2-2.7-1.6-2.5-3.2c0.1-1.1,0.9-2,2-2.4c0.2-0.1,0.3-0.3,0.3-0.5
		c0,0,0-0.1,0-0.1c-0.7-1.3-2-2.2-3.5-2.4c-0.7,0-1.5,0.2-2.2,0.5c-0.5,0.2-1,0.3-1.6,0.4c-0.5,0-1.1-0.2-1.6-0.4
		C7.9,5.1,7.2,5,6.4,4.9c-1.5,0-4.5,2.2-4.5,6.2c0,3.8,2.8,8.7,4.9,8.7c0.8,0,1.6-0.2,2.4-0.6c0.3-0.2,0.6-0.2,0.9-0.3
		c0.3,0,0.6,0.1,0.9,0.3c0.7,0.4,1.6,0.6,2.4,0.6c1.7,0,3.7-3,4.5-5.7C18,14,17.9,13.8,17.9,13.7z"/>
	<path class="st0" d="M9.7,4.9c2.5,0,4.5-2,4.5-4.5c0-0.2-0.2-0.4-0.4-0.4c-2.5,0-4.5,2-4.5,4.5C9.3,4.8,9.5,4.9,9.7,4.9z"/>
</g>
</svg>
