<?xml version="1.0" encoding="utf-8"?>
<!-- Generator: Adobe Illustrator 21.0.2, SVG Export Plug-In . SVG Version: 6.00 Build 0)  -->
<svg version="1.1" id="Capa_1" xmlns="http://www.w3.org/2000/svg" xmlns:xlink="http://www.w3.org/1999/xlink" x="0px" y="0px"
	 viewBox="0 0 512 512" style="enable-background:new 0 0 512 512;" xml:space="preserve">
<style type="text/css">
	.st0{fill:#01A15C;}
</style>
<g>
	<rect x="151" y="376" class="st0" width="210" height="61"/>
	<path class="st0" d="M76,60c-8.3,0-15,6.7-15,15v422c0,8.3,6.7,15,15,15h360c8.3,0,15-6.7,15-15V75c0-8.3-6.7-15-15-15h-90v15
		c0,24.8-20.2,45-45,45h-90c-24.8,0-45-20.2-45-45V60H76z M136,166c8.3,0,15,6.7,15,15s-6.7,15-15,15s-15-6.7-15-15
		S127.7,166,136,166z M136,226c8.3,0,15,6.7,15,15s-6.7,15-15,15s-15-6.7-15-15S127.7,226,136,226z M136,286c8.3,0,15,6.7,15,15
		s-6.7,15-15,15s-15-6.7-15-15S127.7,286,136,286z M196,166h180c8.3,0,15,6.7,15,15s-6.7,15-15,15H196c-8.3,0-15-6.7-15-15
		S187.7,166,196,166z M196,226h180c8.3,0,15,6.7,15,15s-6.7,15-15,15H196c-8.3,0-15-6.7-15-15S187.7,226,196,226z M196,286h180
		c8.3,0,15,6.7,15,15s-6.7,15-15,15H196c-8.3,0-15-6.7-15-15S187.7,286,196,286z M376,346c8.3,0,15,6.7,15,15v91c0,8.3-6.7,15-15,15
		H136c-8.3,0-15-6.7-15-15v-91c0-8.3,6.7-15,15-15H376z"/>
	<path class="st0" d="M301,90c8.3,0,15-6.7,15-15V45c0-8.3-6.7-15-15-15h-15c0-16.6-13.4-30-30-30s-30,13.4-30,30h-15
		c-8.3,0-15,6.7-15,15v30c0,8.3,6.7,15,15,15H301z"/>
</g>
</svg>
