<?xml version="1.0" encoding="utf-8"?>
<!-- Generator: Adobe Illustrator 21.0.2, SVG Export Plug-In . SVG Version: 6.00 Build 0)  -->
<svg version="1.1" id="Layer_35" xmlns="http://www.w3.org/2000/svg" xmlns:xlink="http://www.w3.org/1999/xlink" x="0px" y="0px"
	 viewBox="0 0 512 512" style="enable-background:new 0 0 512 512;" xml:space="preserve">
<style type="text/css">
	.st0{fill:#01A15C;}
</style>
<g>
	<path class="st0" d="M120,90.4c23.1,6.9,40,28.3,40,53.6c0,15.7-6.5,29.8-16.9,40h3.3c7.4,0,14.7-2,21-5.9l87.9-54.1
		c4.2-2.6,9-4,14-4c12.4,0,22.7,8.5,25.7,19.9l24.7,29.6c2.6-1,5.4-1.6,8.3-1.6c13.2,0,24,10.8,24,24c0,1.6-0.2,3.2-0.5,4.8
		l41.3,24.8c4.1-3.4,9.4-5.6,15.2-5.6c0,0,0,0,0.1,0l24.8-69.5c-5.4-4.4-8.9-11-8.9-18.5c0-13.2,10.8-24,24-24s24,10.8,24,24
		s-10.8,24-24,24c0,0,0,0-0.1,0l-24.8,69.5c5.4,4.4,8.9,11,8.9,18.5c0,13.2-10.8,24-24,24s-24-10.8-24-24c0-1.6,0.2-3.2,0.5-4.8
		l-41.3-24.8c-4.1,3.4-9.4,5.6-15.2,5.6c-13.2,0-24-10.8-24-24c0-4.5,1.3-8.6,3.4-12.2l-14.6-17.5c-2.1,4-5.2,7.4-9.1,9.9
		l-105.5,68.3c-11.4,7.4-18.3,20-18.3,33.6v38h40v-8c0-13.2,10.8-24,24-24h192c13.2,0,24,10.8,24,24v8h48V88H120V90.4z M472,296h-16
		v-16h16V296z M472,264h-16v-16h16V264z M472,232h-16v-16h16V232z"/>
	<path class="st0" d="M312,376h16v48h-16V376z"/>
	<path class="st0" d="M101.4,200l-5.1,61l7.7,7.7l7.7-7.7l-5.1-61H104H101.4z"/>
	<circle class="st0" cx="328" cy="192" r="8"/>
	<path class="st0" d="M248,360h16v64h-16V360z"/>
	<path class="st0" d="M416,296H224c-4.4,0-8,3.6-8,8v144c0,4.4,3.6,8,8,8h192c4.4,0,8-3.6,8-8V304C424,299.6,420.4,296,416,296z
		 M408,440H232v-96h48v80h16v-64h48v64h16V312h48V440z"/>
	<path class="st0" d="M275.1,158.8c3.1-2,4.9-5.3,4.9-9v-3.1c0-5.9-4.8-10.7-10.7-10.7c-2,0-3.9,0.5-5.6,1.6l-87.9,54.1
		c-8.8,5.4-19,8.3-29.4,8.3h-23.7l5.6,67L104,291.3L79.7,267l5.5-66.1C50.6,206.1,24,236,24,272v56c0,8.8,7.2,16,16,16h8v-88h16v216
		c0,8.8,7.2,16,16,16s16-7.2,16-16V328h16v144c0,8.8,7.2,16,16,16s16-7.2,16-16V274.1c0-19.1,9.6-36.7,25.6-47L275.1,158.8z"/>
	<path class="st0" d="M120,24v48h368V24H120z M152,56h-16V40h16V56z M184,56h-16V40h16V56z M216,56h-16V40h16V56z"/>
	<circle class="st0" cx="104" cy="144" r="40"/>
	<path class="st0" d="M376,328h16v96h-16V328z"/>
	<circle class="st0" cx="448" cy="128" r="8"/>
	<circle class="st0" cx="408" cy="240" r="8"/>
</g>
</svg>
