<?xml version="1.0" encoding="utf-8"?>
<!-- Generator: Adobe Illustrator 21.0.2, SVG Export Plug-In . SVG Version: 6.00 Build 0)  -->
<svg version="1.1" id="Layer_1" xmlns="http://www.w3.org/2000/svg" xmlns:xlink="http://www.w3.org/1999/xlink" x="0px" y="0px"
	 viewBox="0 0 464 464" style="enable-background:new 0 0 464 464;" xml:space="preserve">
<style type="text/css">
	.st0{fill:#01A15C;}
</style>
<g>
	<path class="st0" d="M360,448h-67.8l-25.6-64h-69.2l-25.6,64H104c-4.4,0-8,3.6-8,8s3.6,8,8,8h256c4.4,0,8-3.6,8-8
		S364.4,448,360,448z"/>
	<path class="st0" d="M8,344c0,13.3,10.7,24,24,24h400c13.3,0,24-10.7,24-24v-8H8V344z"/>
	<path class="st0" d="M208,176V64.4c-59.6,4.2-105.4,54.6-104,114.3S153.5,286.5,213.3,288c59.7,1.4,110.1-44.4,114.3-104H216
		C211.6,184,208,180.4,208,176z"/>
	<path class="st0" d="M432,0H32C18.7,0,8,10.7,8,24v296h448V24C456,10.7,445.3,0,432,0z M216,304c-70.7,0-128-57.3-128-128
		S145.3,48,216,48c4.4,0,8,3.6,8,8v112h112c4.4,0,8,3.6,8,8C343.9,246.7,286.7,303.9,216,304z M368,152H248c-4.4,0-8-3.6-8-8V24
		c0-4.4,3.6-8,8-8c70.7,0.1,127.9,57.3,128,128C376,148.4,372.4,152,368,152z"/>
	<path class="st0" d="M256,32.3V136h103.7C355.7,80.5,311.5,36.3,256,32.3z"/>
</g>
</svg>
