<?xml version="1.0" encoding="utf-8"?>
<!-- Generator: Adobe Illustrator 24.0.2, SVG Export Plug-In . SVG Version: 6.00 Build 0)  -->
<svg version="1.1" id="Livello_1" xmlns="http://www.w3.org/2000/svg" xmlns:xlink="http://www.w3.org/1999/xlink" x="0px" y="0px"
	 viewBox="0 0 20 20" style="enable-background:new 0 0 20 20;" xml:space="preserve">
<style type="text/css">
	.st0{fill:#40A5A8;}
	.st1{fill:#5EB254;}
	.st2{fill:#DB4342;}
	.st3{fill:#F2DC36;}
</style>
<g>
	<title></title>
	<path class="st0" d="M0.1,1v18c0,0.5,0.4,0.9,1,0.9c0.1,0,0.3,0,0.4-0.1l17.9-9c0.5-0.2,0.6-0.8,0.4-1.2c-0.1-0.2-0.2-0.3-0.4-0.4
		l-17.9-9C1,0,0.4,0.1,0.2,0.6C0.1,0.7,0.1,0.9,0.1,1z"/>
	<path class="st1" d="M14.4,6.7l-13-6.5C1.1,0,0.7,0.1,0.4,0.4l10.2,10.2L14.4,6.7"/>
	<path class="st2" d="M14.6,13.2l-3.8-4L0.4,19.6c0.3,0.3,0.7,0.4,1.1,0.2L14.6,13.2"/>
	<path class="st3" d="M19.4,9.2l-5.7-2.9L10,10l3.7,3.7l5.7-2.9c0.5-0.2,0.6-0.8,0.4-1.2C19.7,9.4,19.6,9.3,19.4,9.2z"/>
</g>
</svg>
