<?xml version="1.0" encoding="utf-8"?>
<!-- Generator: Adobe Illustrator 24.0.2, SVG Export Plug-In . SVG Version: 6.00 Build 0)  -->
<svg version="1.1" id="Layer_1" xmlns="http://www.w3.org/2000/svg" xmlns:xlink="http://www.w3.org/1999/xlink" x="0px" y="0px"
	 viewBox="0 0 20 20" style="enable-background:new 0 0 20 20;" xml:space="preserve">
<style type="text/css">
	.st0{fill:#40A5A8;}
	.st1{fill:#5EB254;}
	.st2{fill:#DB4342;}
	.st3{fill:#F2DC36;}
</style>
<g>
	<title></title>
	<path class="st0" d="M0,0.9v18c0,0.5,0.4,0.9,1,0.9c0.1,0,0.3,0,0.4-0.1l17.9-9c0.5-0.2,0.6-0.8,0.4-1.2c-0.1-0.2-0.2-0.3-0.4-0.4
		l-17.9-9c-0.5-0.2-1-0.1-1.3,0.4C0,0.7,0,0.8,0,0.9z"/>
	<path class="st1" d="M14.3,6.6l-13-6.5C1-0.1,0.6,0,0.3,0.3l10.2,10.2L14.3,6.6"/>
	<path class="st2" d="M14.5,13.2l-3.8-4L0.3,19.6c0.3,0.3,0.7,0.4,1.1,0.2L14.5,13.2"/>
	<path class="st3" d="M19.3,9.1l-5.7-2.9L9.9,9.9l3.7,3.7l5.7-2.9c0.5-0.2,0.6-0.8,0.4-1.2C19.6,9.3,19.5,9.2,19.3,9.1z"/>
</g>
</svg>
