<?xml version="1.0" encoding="utf-8"?>
<!-- Generator: Adobe Illustrator 24.2.1, SVG Export Plug-In . SVG Version: 6.00 Build 0)  -->
<svg version="1.1" id="Capa_1" xmlns="http://www.w3.org/2000/svg" xmlns:xlink="http://www.w3.org/1999/xlink" x="0px" y="0px"
	 viewBox="0 0 512 512" style="enable-background:new 0 0 512 512;" xml:space="preserve">
<style type="text/css">
	.st0{fill:#01A15C;}
</style>
<g>
	<path class="st0" d="M256,462L52.1,333l-39.5,25L256,512l243.5-154l-39.5-25L256,462z"/>
	<path class="st0" d="M256,426.5l243.5-154l-102.3-64.7c-7.3,13.4-16.5,25.7-27.5,36.7L256,358.2L142.3,244.5
		c-11-11-20.2-23.3-27.5-36.7L12.5,272.5L256,426.5z"/>
	<path class="st0" d="M163.5,223.3l92.5,92.5l92.5-92.5c51.1-51.1,51.1-133.9,0-185C323,12.8,289.5,0,256,0s-67,12.8-92.5,38.3
		C112.4,89.4,112.4,172.2,163.5,223.3L163.5,223.3z M256,34.1c53.3,0,96.7,43.4,96.7,96.7s-43.4,96.7-96.7,96.7
		s-96.7-43.4-96.7-96.7S202.7,34.1,256,34.1z"/>
	<circle class="st0" cx="256" cy="130.8" r="66.7"/>
</g>
</svg>
